<?xml version="1.0" encoding="UTF-8"?>
<svg width="118px" height="40px" viewBox="0 0 118 40" version="1.1" xmlns="http://www.w3.org/2000/svg" xmlns:xlink="http://www.w3.org/1999/xlink">
    <title>topnav-logo</title>
    <g id="Page-1" stroke="none" stroke-width="1" fill="none" fill-rule="evenodd">
        <g id="Homepage-Dev-Ready" transform="translate(-100.000000, -20.000000)">
            <g id="topnav-logo" transform="translate(100.000000, 20.000000)">
                <path d="M59,40 L0,40 L0,0 L59,0 M59,2 L2,2 L2,38 L59,38" id="Rectangle-Copy" fill="#FFFFFF" fill-rule="nonzero"></path>
                <path d="M59,40 L0,40 L0,0 L59,0 M59,2 L2,2 L2,38 L59,38" id="Rectangle-Copy-2" fill="#FFFFFF" fill-rule="nonzero" opacity="0.400000006" transform="translate(59.000000, 20.000000) scale(-1, 1) translate(-59.000000, -20.000000) "></path>
                <path d="M44.28,25.16 C44.8133333,25.16 45.288,25.0426667 45.704,24.808 C46.12,24.5733333 46.4426667,24.248 46.672,23.832 C46.9013333,23.416 47.016,22.9413333 47.016,22.408 C47.016,21.8 46.864,21.2426667 46.56,20.736 C46.256,20.2293333 45.688,19.56 44.856,18.728 C44.248,18.12 43.8373333,17.6533333 43.624,17.328 C43.4106667,17.0026667 43.304,16.664 43.304,16.312 C43.304,15.96 43.384,15.6933333 43.544,15.512 C43.704,15.3306667 43.9333333,15.24 44.232,15.24 C44.5306667,15.24 44.76,15.352 44.92,15.576 C45.08,15.8 45.16,16.1253333 45.16,16.552 L45.16,16.552 L45.16,16.872 L46.792,16.696 L46.792,16.408 C46.792,15.5653333 46.5626667,14.8933333 46.104,14.392 C45.6453333,13.8906667 45.016,13.64 44.216,13.64 C43.416,13.64 42.7866667,13.888 42.328,14.384 C41.8693333,14.88 41.64,15.5493333 41.64,16.392 C41.64,17.0106667 41.792,17.5813333 42.096,18.104 C42.4,18.6266667 42.968,19.2826667 43.8,20.072 C44.4186667,20.6586667 44.832,21.1173333 45.04,21.448 C45.248,21.7786667 45.352,22.1253333 45.352,22.488 C45.352,22.8186667 45.2533333,23.08 45.056,23.272 C44.8586667,23.464 44.5946667,23.56 44.264,23.56 C43.9226667,23.56 43.656,23.4426667 43.464,23.208 C43.272,22.9733333 43.176,22.6533333 43.176,22.248 L43.176,22.248 L43.176,21.832 L41.544,22.008 L41.544,22.408 C41.544,22.9413333 41.6586667,23.416 41.888,23.832 C42.1173333,24.248 42.44,24.5733333 42.856,24.808 C43.272,25.0426667 43.7466667,25.16 44.28,25.16 Z M51.032,25.16 C51.8106667,25.16 52.44,24.9173333 52.92,24.432 C53.4,23.9466667 53.64,23.3146667 53.64,22.536 L53.64,22.536 L53.64,13.8 L51.976,13.8 L51.976,22.536 C51.976,22.856 51.888,23.1066667 51.712,23.288 C51.536,23.4693333 51.3093333,23.56 51.032,23.56 C50.7546667,23.56 50.528,23.4693333 50.352,23.288 C50.176,23.1066667 50.088,22.856 50.088,22.536 L50.088,22.536 L50.088,13.8 L48.392,13.8 L48.392,22.536 C48.392,23.3146667 48.6373333,23.9466667 49.128,24.432 C49.6186667,24.9173333 50.2533333,25.16 51.032,25.16 Z M57.128,25 L57.128,20.376 L58.008,20.376 L59.24,25 L61,25 L59.576,19.992 C59.9493333,19.768 60.2373333,19.4586667 60.44,19.064 C60.6426667,18.6693333 60.744,18.216 60.744,17.704 L60.744,17.704 L60.744,16.472 C60.744,15.6613333 60.504,15.0133333 60.024,14.528 C59.544,14.0426667 58.8986667,13.8 58.088,13.8 L58.088,13.8 L55.432,13.8 L55.432,25 L57.128,25 Z M58.008,18.776 L57.128,18.776 L57.128,15.4 L58.008,15.4 C58.3386667,15.4 58.5946667,15.4906667 58.776,15.672 C58.9573333,15.8533333 59.048,16.1093333 59.048,16.44 L59.048,16.44 L59.048,17.736 C59.048,18.0666667 58.9573333,18.3226667 58.776,18.504 C58.5946667,18.6853333 58.3386667,18.776 58.008,18.776 L58.008,18.776 Z M64.088,25 L64.088,20.28 L66.488,20.28 L66.488,18.68 L64.088,18.68 L64.088,15.4 L67.128,15.4 L67.128,13.8 L62.392,13.8 L62.392,25 L64.088,25 Z M71.832,20.232 L71.832,18.568 L67.992,18.568 L67.992,20.232 L71.832,20.232 Z M76.504,25 L78.36,13.8 L76.664,13.8 L75.384,22.6 L74.104,13.8 L72.376,13.8 L74.232,25 L76.504,25 Z M81.368,25 L81.368,13.8 L79.672,13.8 L79.672,25 L81.368,25 Z M85.88,25 C86.6906667,25 87.336,24.7573333 87.816,24.272 C88.296,23.7866667 88.536,23.1386667 88.536,22.328 L88.536,22.328 L88.536,16.472 C88.536,15.6613333 88.296,15.0133333 87.816,14.528 C87.336,14.0426667 86.6906667,13.8 85.88,13.8 L85.88,13.8 L83.224,13.8 L83.224,25 L85.88,25 Z M85.8,23.4 L84.92,23.4 L84.92,15.4 L85.8,15.4 C86.1306667,15.4 86.3866667,15.4906667 86.568,15.672 C86.7493333,15.8533333 86.84,16.1093333 86.84,16.44 L86.84,16.44 L86.84,22.36 C86.84,22.6906667 86.7493333,22.9466667 86.568,23.128 C86.3866667,23.3093333 86.1306667,23.4 85.8,23.4 L85.8,23.4 Z M95.048,25 L95.048,23.4 L91.928,23.4 L91.928,20.12 L94.408,20.12 L94.408,18.52 L91.928,18.52 L91.928,15.4 L95.048,15.4 L95.048,13.8 L90.232,13.8 L90.232,25 L95.048,25 Z M99.048,25.16 C99.8586667,25.16 100.514667,24.912 101.016,24.416 C101.517333,23.92 101.768,23.2666667 101.768,22.456 L101.768,22.456 L101.768,16.344 C101.768,15.5333333 101.517333,14.88 101.016,14.384 C100.514667,13.888 99.8586667,13.64 99.048,13.64 C98.2373333,13.64 97.5813333,13.888 97.08,14.384 C96.5786667,14.88 96.328,15.5333333 96.328,16.344 L96.328,16.344 L96.328,22.456 C96.328,23.2666667 96.5786667,23.92 97.08,24.416 C97.5813333,24.912 98.2373333,25.16 99.048,25.16 Z M99.048,23.56 C98.728,23.56 98.4773333,23.464 98.296,23.272 C98.1146667,23.08 98.024,22.808 98.024,22.456 L98.024,22.456 L98.024,16.344 C98.024,15.992 98.1146667,15.72 98.296,15.528 C98.4773333,15.336 98.728,15.24 99.048,15.24 C99.368,15.24 99.6186667,15.336 99.8,15.528 C99.9813333,15.72 100.072,15.992 100.072,16.344 L100.072,16.344 L100.072,22.456 C100.072,22.808 99.9813333,23.08 99.8,23.272 C99.6186667,23.464 99.368,23.56 99.048,23.56 Z" id="Surf-VIDEO" fill="#FFFFFF" fill-rule="nonzero"></path>
                <g id="Group" transform="translate(15.000000, 10.000000)">
                    <path d="M10,0 C15.5228475,0 20,4.4771525 20,10 C20,15.5228475 15.5228475,20 10,20 C4.4771525,20 0,15.5228475 0,10 C0,4.4771525 4.4771525,0 10,0 Z M11.25,1.66666667 C7.33798302,1.66666667 4.16666667,4.83798302 4.16666667,8.75 C4.16666667,12.662017 7.33798302,15.8333333 11.25,15.8333333 C15.162017,15.8333333 18.3333333,12.662017 18.3333333,8.75 C18.3333333,4.83798302 15.162017,1.66666667 11.25,1.66666667 Z" id="Combined-Shape" fill="#FFFFFF"></path>
                    <path d="M10.4166667,3.33333333 C13.8684464,3.33333333 16.6666667,6.13155365 16.6666667,9.58333333 C16.6666667,13.035113 13.8684464,15.8333333 10.4166667,15.8333333 C6.96488698,15.8333333 4.16666667,13.035113 4.16666667,9.58333333 C4.16666667,6.13155365 6.96488698,3.33333333 10.4166667,3.33333333 Z M9.58333333,5.83333333 C7.05202823,5.83333333 5,7.88536156 5,10.4166667 C5,12.9479718 7.05202823,15 9.58333333,15 C12.1146384,15 14.1666667,12.9479718 14.1666667,10.4166667 C14.1666667,7.88536156 12.1146384,5.83333333 9.58333333,5.83333333 Z" id="Combined-Shape" fill="#0F56F6"></path>
                    <path d="M8.75,7.5 C10.8210678,7.5 12.5,9.17893219 12.5,11.25 C12.5,13.3210678 10.8210678,15 8.75,15 C6.67893219,15 5,13.3210678 5,11.25 C5,9.17893219 6.67893219,7.5 8.75,7.5 Z M9.16666667,8.33333333 C7.78595479,8.33333333 6.66666667,9.45262146 6.66666667,10.8333333 C6.66666667,12.2140452 7.78595479,13.3333333 9.16666667,13.3333333 C10.5473785,13.3333333 11.6666667,12.2140452 11.6666667,10.8333333 C11.6666667,9.45262146 10.5473785,8.33333333 9.16666667,8.33333333 Z" id="Combined-Shape-Copy" fill="#FFFFFF"></path>
                </g>
            </g>
        </g>
    </g>
</svg>