<?xml version="1.0" encoding="UTF-8"?>
<svg width="42px" height="42px" viewBox="0 0 42 42" version="1.1" xmlns="http://www.w3.org/2000/svg" xmlns:xlink="http://www.w3.org/1999/xlink">
    <title>benefits-icon-placeholder-1</title>
    <g id="Page-1" stroke="none" stroke-width="1" fill="none" fill-rule="evenodd">
        <g id="Homepage-Dev-Ready" transform="translate(-100.000000, -783.000000)" fill="#0F56F6">
            <g id="Benefits-Section" transform="translate(0.000000, 753.000000)">
                <g id="benefits-icon-placeholder-1" transform="translate(100.000000, 30.000000)">
                    <path d="M37.8984375,14.109375 C38.1141797,14.109375 38.3258203,14.0216016 38.4783164,13.8689414 C38.6309766,13.7164453 38.71875,13.5048047 38.71875,13.2890625 C38.71875,13.0733203 38.6309766,12.8616797 38.4783164,12.7091016 C38.3258203,12.5565234 38.1141797,12.46875 37.8984375,12.46875 C37.6826953,12.46875 37.4710547,12.5564414 37.3184766,12.7091016 C37.1658984,12.8617617 37.078125,13.0733203 37.078125,13.2890625 C37.078125,13.5048047 37.1658164,13.7164453 37.3184766,13.8689414 C37.4710547,14.0216016 37.6826953,14.109375 37.8984375,14.109375 Z" id="XMLID_699_"></path>
                    <path d="M16.1191406,36.3945586 L16.106918,36.3945586 C15.6539414,36.3945586 15.2866055,36.7618945 15.2866055,37.2148711 C15.2866055,37.6678477 15.6539414,38.0351836 16.106918,38.0351836 L16.1191406,38.0351836 C16.5721172,38.0351836 16.9394531,37.6678477 16.9394531,37.2148711 C16.9394531,36.7618945 16.5721172,36.3945586 16.1191406,36.3945586 Z" id="XMLID_698_"></path>
                    <path d="M42,32.9430117 L42,5.7421875 C42,4.38522656 40.8960234,3.28125 39.5390625,3.28125 L36.7291641,3.28125 L36.7291641,2.7890625 C36.7291641,1.25114062 35.4780234,0 33.9401016,0 C32.4021797,0 31.1510391,1.25114063 31.1510391,2.7890625 L31.1510391,3.28125 L23.7786445,3.28125 L23.7786445,2.7890625 C23.7786445,1.25114062 22.5275039,0 20.989582,0 C19.4516602,0 18.2005195,1.25114063 18.2005195,2.7890625 L18.2005195,3.28125 L10.828125,3.28125 L10.828125,2.7890625 C10.828125,1.25114062 9.57698438,0 8.0390625,0 C6.50114062,0 5.25,1.25114063 5.25,2.7890625 L5.25,3.28125 L2.4609375,3.28125 C1.10397656,3.28125 0,4.38522656 0,5.7421875 L0,39.5390625 C0,40.8960234 1.10397656,42 2.4609375,42 L32.9430117,42 C33.169418,42 33.3744141,41.908207 33.5228086,41.7598945 C33.5228906,41.7598125 33.5229727,41.7598125 33.5230547,41.7597305 L41.7597305,33.5230547 L41.7597305,33.5230547 C41.908125,33.3745781 42,33.1695 42,32.9430117 Z M32.7916641,2.7890625 C32.7916641,2.15578125 33.3068203,1.640625 33.9401016,1.640625 C34.5733828,1.640625 35.0885391,2.15578125 35.0885391,2.7890625 L35.0885391,6.80859375 C35.0885391,7.441875 34.5733828,7.95703125 33.9401016,7.95703125 C33.3068203,7.95703125 32.7916641,7.441875 32.7916641,6.80859375 L32.7916641,2.7890625 Z M19.8411445,2.7890625 C19.8411445,2.15578125 20.3563008,1.640625 20.989582,1.640625 C21.6228633,1.640625 22.1380195,2.15578125 22.1380195,2.7890625 L22.1380195,6.80859375 C22.1380195,7.441875 21.6228633,7.95703125 20.989582,7.95703125 C20.3563008,7.95703125 19.8411445,7.441875 19.8411445,6.80859375 L19.8411445,2.7890625 Z M6.890625,2.7890625 C6.890625,2.15578125 7.40578125,1.640625 8.0390625,1.640625 C8.67234375,1.640625 9.1875,2.15578125 9.1875,2.7890625 L9.1875,6.80859375 C9.1875,7.441875 8.67234375,7.95703125 8.0390625,7.95703125 C7.40578125,7.95703125 6.890625,7.441875 6.890625,6.80859375 L6.890625,2.7890625 Z M1.640625,39.5390625 L1.640625,38.0351836 L12.8378906,38.0351836 C13.2908672,38.0351836 13.6582031,37.6678477 13.6582031,37.2148711 C13.6582031,36.7618945 13.2908672,36.3945586 12.8378906,36.3945586 L1.640625,36.3945586 L1.640625,14.109375 L34.6171875,14.109375 C35.0701641,14.109375 35.4375,13.7420391 35.4375,13.2890625 C35.4375,12.8360859 35.0701641,12.46875 34.6171875,12.46875 L1.640625,12.46875 L1.640625,5.7421875 C1.640625,5.28986719 2.00861719,4.921875 2.4609375,4.921875 L5.25,4.921875 L5.25,6.80859375 C5.25,8.34651563 6.50114062,9.59765625 8.0390625,9.59765625 C9.57698438,9.59765625 10.828125,8.34651563 10.828125,6.80859375 L10.828125,4.921875 L18.2005195,4.921875 L18.2005195,6.80859375 C18.2005195,8.34651563 19.4516602,9.59765625 20.989582,9.59765625 C22.5275039,9.59765625 23.7786445,8.34651563 23.7786445,6.80859375 L23.7786445,4.921875 L31.1510391,4.921875 L31.1510391,6.80859375 C31.1510391,8.34651563 32.4021797,9.59765625 33.9401016,9.59765625 C35.4780234,9.59765625 36.7291641,8.34651563 36.7291641,6.80859375 L36.7291641,4.921875 L39.5390625,4.921875 C39.9913828,4.921875 40.359375,5.28986719 40.359375,5.7421875 L40.359375,32.1226992 L34.5836367,32.1226992 C33.2266758,32.1226992 32.1226992,33.2266758 32.1226992,34.5836367 L32.1226992,40.359375 L2.4609375,40.359375 C2.00861719,40.359375 1.640625,39.9913828 1.640625,39.5390625 Z M33.7633242,39.199207 L33.7633242,34.5835547 C33.7633242,34.1312344 34.1313164,33.7632422 34.5836367,33.7632422 L39.1992891,33.7632422 L33.7633242,39.199207 Z" id="XMLID_691_"></path>
                    <path d="M16.0831289,28.7530195 L16.0831289,25.921875 L16.0831289,23.0907305 C16.0831289,22.2093047 15.3660117,21.4921875 14.4845859,21.4921875 L10.9315664,21.4921875 C10.4785898,21.4921875 10.1112539,21.8595234 10.1112539,22.3125 C10.1112539,22.7654766 10.4785898,23.1328125 10.9315664,23.1328125 L14.4425039,23.1328125 L14.4425039,25.1015625 L10.9315664,25.1015625 C10.4785898,25.1015625 10.1112539,25.4688984 10.1112539,25.921875 C10.1112539,26.3748516 10.4785898,26.7421875 10.9315664,26.7421875 L14.4425039,26.7421875 L14.4425039,28.7109375 L10.9315664,28.7109375 C10.4785898,28.7109375 10.1112539,29.0782734 10.1112539,29.53125 C10.1112539,29.9842266 10.4785898,30.3515625 10.9315664,30.3515625 L14.4845859,30.3515625 C15.3659297,30.3515625 16.0831289,29.6344453 16.0831289,28.7530195 Z" id="XMLID_690_"></path>
                    <path d="M23.2033594,23.1328125 C23.6563359,23.1328125 24.0236719,22.7654766 24.0236719,22.3125 C24.0236719,21.8595234 23.6563359,21.4921875 23.2033594,21.4921875 L19.6503398,21.4921875 C18.7689141,21.4921875 18.0517969,22.2093047 18.0517969,23.0907305 L18.0517969,25.921875 L18.0517969,28.7530195 C18.0517969,29.6344453 18.7689141,30.3515625 19.6503398,30.3515625 L22.4250469,30.3515625 C23.3064727,30.3515625 24.0235898,29.6344453 24.0235898,28.7530195 L24.0235898,26.7001875 C24.0235898,25.8187617 23.3064727,25.1016445 22.4250469,25.1016445 L21.2182031,25.1016445 L19.6924219,25.1016445 L19.6924219,23.1328945 L23.2033594,23.1328945 L23.2033594,23.1328125 Z M21.2182031,26.7421875 L22.3830469,26.7421875 L22.3830469,28.7109375 L19.6924219,28.7109375 L19.6924219,26.7421875 L21.2182031,26.7421875 Z" id="XMLID_687_"></path>
                    <path d="M30.3657539,25.1015625 L28.9784414,25.1015625 L27.6331289,25.1015625 L27.6331289,23.1328125 L31.1440664,23.1328125 C31.597043,23.1328125 31.9643789,22.7654766 31.9643789,22.3125 C31.9643789,21.8595234 31.597043,21.4921875 31.1440664,21.4921875 L27.5910469,21.4921875 C26.7096211,21.4921875 25.9925039,22.2093047 25.9925039,23.0907305 L25.9925039,25.1435625 C25.9925039,26.0249883 26.7096211,26.7421055 27.5910469,26.7421055 L28.9784414,26.7421055 L30.3236719,26.7421055 L30.3236719,28.7108555 L26.8127344,28.7108555 C26.3597578,28.7108555 25.9924219,29.0781914 25.9924219,29.531168 C25.9924219,29.9841445 26.3597578,30.3514805 26.8127344,30.3514805 L30.3657539,30.3514805 C31.2471797,30.3514805 31.9642969,29.6343633 31.9642969,28.7529375 L31.9642969,26.7001055 C31.9642969,25.8186797 31.2471797,25.1015625 30.3657539,25.1015625 Z" id="XMLID_686_"></path>
                </g>
            </g>
        </g>
    </g>
</svg>