<?xml version="1.0" encoding="UTF-8"?>
<svg width="42px" height="42px" viewBox="0 0 42 42" version="1.1" xmlns="http://www.w3.org/2000/svg" xmlns:xlink="http://www.w3.org/1999/xlink">
    <title>benefits-icon-placeholder-3</title>
    <g id="Page-1" stroke="none" stroke-width="1" fill="none" fill-rule="evenodd">
        <g id="Homepage-Dev-Ready" transform="translate(-1013.000000, -783.000000)" fill="#0F56F6">
            <g id="Benefits-Section" transform="translate(0.000000, 753.000000)">
                <g id="benefits-icon-placeholder-3" transform="translate(1013.000000, 30.000000)">
                    <path d="M28.7846941,15.2116699 C28.6443437,14.9380188 28.3623613,14.765625 28.054744,14.765625 L25.079829,14.765625 C27.2722427,11.5084076 28.3828691,9.02824404 28.3828691,7.3828125 C28.3828691,3.31201172 25.0708568,0 21.0000553,0 C16.9292538,0 13.6172416,3.31201172 13.6172416,7.3828125 C13.6172416,9.02792362 14.7275475,11.5071259 16.9202817,14.765625 L13.9453666,14.765625 C13.6377494,14.765625 13.3557669,14.9380188 13.2154165,15.2116699 L8.98696127,23.4570923 C8.78028087,23.860199 8.93953686,24.3546295 9.34264366,24.5613098 C9.74414822,24.7673492 10.2395402,24.6103363 10.4468613,24.2059479 L14.4465264,16.40625 L17.2721189,16.40625 L6.52378028,40.359375 L2.16298549,40.359375 L7.4527202,30.0445861 C7.65940059,29.6411591 7.50014461,29.1470489 7.09703781,28.9400482 C6.69393101,28.733368 6.19950044,28.8926239 5.99282013,29.2957306 L0.0904142557,40.8054199 C-0.0400025751,41.0598449 -0.0287873427,41.363617 0.120535151,41.6074677 C0.269537232,41.8513184 0.534536687,42 0.820364372,42 L41.1797463,42 C41.4655739,42 41.7308938,41.8513184 41.8795755,41.6074677 C42.0285776,41.363617 42.0401132,41.0595245 41.9096964,40.8054199 L28.7846941,15.2116699 Z M21.0000553,1.640625 C24.1662698,1.640625 26.7422438,4.21659853 26.7422438,7.3828125 C26.7422438,9.98025509 22.6086371,15.5250549 21.0000553,17.5601349 C19.3786561,15.5090332 15.2578668,9.98121641 15.2578668,7.3828125 C15.2578668,4.21659853 17.8338408,1.640625 21.0000553,1.640625 Z M18.6910034,17.2509155 C19.35943,18.142044 19.9054506,18.8239288 20.1797427,19.1607056 L20.1797427,21 C20.1797427,21.4530945 20.5469607,21.8203125 21.0000553,21.8203125 C21.4531499,21.8203125 21.820368,21.4530945 21.820368,21 L21.820368,19.1607056 C22.09466,18.8239288 22.6406806,18.142044 23.3091073,17.2509155 L33.6780512,40.359375 L21.820368,40.359375 L21.820368,37.40625 C21.820368,36.9531555 21.4531499,36.5859375 21.0000553,36.5859375 C20.5469607,36.5859375 20.1797427,36.9531555 20.1797427,37.40625 L20.1797427,40.359375 L8.3220594,40.359375 L18.6910034,17.2509155 Z M35.4763303,40.359375 L24.7283122,16.40625 L27.5535843,16.40625 L39.8371251,40.359375 L35.4763303,40.359375 Z" id="Shape"></path>
                    <path d="M21.0000553,26.7421875 C21.4531499,26.7421875 21.820368,26.3749695 21.820368,25.921875 L21.820368,24.28125 C21.820368,23.8281555 21.4531499,23.4609375 21.0000553,23.4609375 C20.5469607,23.4609375 20.1797427,23.8281555 20.1797427,24.28125 L20.1797427,25.921875 C20.1797427,26.3749695 20.5469607,26.7421875 21.0000553,26.7421875 Z" id="Path"></path>
                    <path d="M21.0000553,31.6640625 C21.4531499,31.6640625 21.820368,31.2968445 21.820368,30.84375 L21.820368,29.203125 C21.820368,28.7500305 21.4531499,28.3828125 21.0000553,28.3828125 C20.5469607,28.3828125 20.1797427,28.7500305 20.1797427,29.203125 L20.1797427,30.84375 C20.1797427,31.2968445 20.5469607,31.6640625 21.0000553,31.6640625 Z" id="Path"></path>
                    <path d="M21.0000553,10.6640625 C22.8092292,10.6640625 24.2813059,9.19198612 24.2813059,7.3828125 C24.2813059,5.57363888 22.8092292,4.1015625 21.0000553,4.1015625 C19.1908814,4.1015625 17.7188048,5.57363888 17.7188048,7.3828125 C17.7188048,9.19198612 19.1908814,10.6640625 21.0000553,10.6640625 Z M21.0000553,5.7421875 C21.9046423,5.7421875 22.6406806,6.47822569 22.6406806,7.3828125 C22.6406806,8.28739931 21.9046423,9.0234375 21.0000553,9.0234375 C20.0954683,9.0234375 19.35943,8.28739931 19.35943,7.3828125 C19.35943,6.47822569 20.0954683,5.7421875 21.0000553,5.7421875 Z" id="Shape"></path>
                    <path d="M8.20317813,27.5625 C8.65595224,27.5625 9.02349077,27.1949615 9.02349077,26.7421875 C9.02349077,26.2894135 8.65595224,25.921875 8.20317813,25.921875 C7.75040403,25.921875 7.38286549,26.2894135 7.38286549,26.7421875 C7.38286549,27.1949615 7.75040403,27.5625 8.20317813,27.5625 Z" id="Path"></path>
                    <path d="M21.0000553,34.9453125 C21.4528294,34.9453125 21.820368,34.577774 21.820368,34.125 C21.820368,33.672226 21.4528294,33.3046875 21.0000553,33.3046875 C20.5472812,33.3046875 20.1797427,33.672226 20.1797427,34.125 C20.1797427,34.577774 20.5472812,34.9453125 21.0000553,34.9453125 Z" id="Path"></path>
                </g>
            </g>
        </g>
    </g>
</svg>