<?xml version="1.0" encoding="UTF-8"?>
<svg width="42px" height="42px" viewBox="0 0 42 42" version="1.1" xmlns="http://www.w3.org/2000/svg" xmlns:xlink="http://www.w3.org/1999/xlink">
    <title>benefits-icon-placeholder-2</title>
    <g id="Page-1" stroke="none" stroke-width="1" fill="none" fill-rule="evenodd">
        <g id="Homepage-Dev-Ready" transform="translate(-557.000000, -783.000000)" fill="#0F56F6">
            <g id="Benefits-Section" transform="translate(0.000000, 753.000000)">
                <g id="benefits-icon-placeholder-2" transform="translate(557.000000, 30.000000)">
                    <path d="M19.3073224,28.4866771 C19.6275364,28.1659217 19.6275364,27.6468169 19.3073224,27.3260614 C18.9867878,27.0062671 18.4675218,27.0062671 18.1466666,27.3260614 C17.8267731,27.6468169 17.8267731,28.1659217 18.1466666,28.4866771 C18.4675218,28.8064713 18.9867878,28.8064713 19.3073224,28.4866771 Z" id="Path"></path>
                    <path d="M15.422443,9.0208879 C15.422443,13.9950014 19.4704745,18.0420962 24.4461332,18.0420962 C29.4217919,18.0420962 33.4698235,13.9950014 33.4698235,9.0208879 C33.4698235,4.04677439 29.4217919,0 24.4461332,0 C19.4704745,0 15.422443,4.04677439 15.422443,9.0208879 Z M31.8293273,9.0208879 C31.8293273,13.0907336 28.5172432,16.4017891 24.4461332,16.4017891 C20.3750232,16.4017891 17.0629391,13.0907336 17.0629391,9.0208879 C17.0629391,4.9513626 20.3750232,1.64030711 24.4461332,1.64030711 C28.5172432,1.64030711 31.8293273,4.9513626 31.8293273,9.0208879 Z" id="Shape"></path>
                    <path d="M9.44896008,41.7574953 C9.76693041,42.0779304 10.2845938,42.0814552 10.6067311,41.7642244 L14.5839245,37.8472262 C15.2596114,37.1717491 15.4650741,36.1716713 15.1679385,35.3023309 L16.0234454,34.4775311 C16.4840536,34.0327672 17.0905051,33.7876344 17.7315743,33.7876344 L28.6371232,33.7876344 C30.57187,33.7876344 32.40052,33.0448659 33.7868322,31.6961547 C33.8438873,31.6407195 33.3537899,32.217823 41.2267609,22.8111313 C42.3944685,21.4300562 42.2197771,19.3562005 40.8369908,18.1875738 C39.462859,17.0298418 37.4043858,17.1961477 36.2334728,18.5535106 L31.3927592,23.5273037 C30.7814997,22.7752426 29.8493851,22.306446 28.8422654,22.306446 L19.6945282,22.306446 C18.3928372,21.7620269 17.0116535,21.4864528 15.5865567,21.4864528 C11.6362882,21.4864528 8.18701535,23.3103691 6.33592798,26.7300521 C5.55606731,26.5823315 4.73357547,26.8181717 4.14186854,27.4096949 L0.239359777,31.3225275 C-0.0792516623,31.6420012 -0.0798926905,32.158863 0.238077639,32.479298 L9.44896008,41.7574953 Z M15.5862361,23.1264394 C16.8427318,23.1264394 18.057558,23.3792626 19.1976995,23.8778596 C19.3015528,23.9233614 19.4134194,23.9467532 19.5265681,23.9467532 L28.8422654,23.9467532 C29.7317488,23.9467532 30.483082,24.6718977 30.483082,25.5867398 C30.483082,26.491328 29.7471345,27.2270469 28.8422654,27.2270469 L22.1491822,27.2270469 C21.6962668,27.2270469 21.3289342,27.5942655 21.3289342,28.0470402 C21.3289342,28.5001354 21.6962668,28.8670336 22.1491822,28.8670336 L28.8422654,28.8670336 C30.6516832,28.8670336 32.1235781,27.3955958 32.1235781,25.5867398 C32.1235781,25.442544 32.113321,25.29963 32.0947299,25.1579977 C36.77742,20.3460244 37.4377214,19.6699063 37.4659284,19.6362607 C38.0505835,18.946364 39.0884745,18.8588853 39.7789061,19.4407953 C40.4699786,20.0249484 40.5574847,21.0618763 39.9712269,21.7556182 L32.613355,30.5489972 C31.538923,31.5801572 30.1282501,32.1476477 28.6371232,32.1476477 L17.7315743,32.1476477 C16.6629119,32.1476477 15.6513047,32.5562024 14.8839449,33.2973687 L14.1867821,33.9699619 L7.76006318,27.5455594 C9.26208838,24.7286147 12.0805492,23.1264394 15.5862361,23.1264394 L15.5862361,23.1264394 Z M5.30284493,28.5687085 C5.57337613,28.2982613 5.98878898,28.2495552 6.31861907,28.4533519 C6.46061592,28.5398693 6.05289591,28.1688056 13.4239097,35.5272763 C13.7518166,35.8550814 13.7341872,36.3773905 13.4283972,36.6830856 L10.0377821,40.0223394 L1.97729837,31.9028353 L5.30284493,28.5687085 Z" id="Shape"></path>
                    <path d="M23.4617714,4.10060749 L23.4617714,5.06159226 C22.5068988,5.39997169 21.8209548,6.31160942 21.8209548,7.38090121 C21.8209548,8.73730289 22.9248759,9.84120167 24.2820195,9.84120167 C24.7342939,9.84120167 25.1022675,10.2090611 25.1022675,10.661195 C25.1022675,11.1133288 24.7342939,11.4811884 24.2820195,11.4811884 C23.9316752,11.4811884 23.5531238,11.2610495 23.216883,10.8608261 C22.9251965,10.5141153 22.4078536,10.4695748 22.0610352,10.7608503 C21.7142168,11.0524462 21.6693419,11.5696284 21.9610284,11.9163391 C22.3995197,12.437687 22.9152599,12.8010603 23.4617714,12.9843492 L23.4617714,13.9414887 C23.4617714,14.3945839 23.8291041,14.7614821 24.2820195,14.7614821 C24.7349349,14.7614821 25.1022675,14.3945839 25.1022675,13.9414887 L25.1022675,12.980504 C26.0571401,12.6418041 26.7430842,11.7301664 26.7430842,10.661195 C26.7430842,9.30447291 25.639163,8.20089456 24.2820195,8.20089456 C23.8297452,8.20089456 23.4617714,7.8330351 23.4617714,7.38090121 C23.4617714,6.9287674 23.8297452,6.56058745 24.2820195,6.56058745 C24.5727444,6.56058745 24.879496,6.7089489 25.1692593,6.9893296 C25.4949225,7.30431729 26.0141885,7.29566552 26.3292741,6.97042391 C26.6443595,6.64486189 26.6357051,6.12575709 26.3103625,5.81076948 C25.893988,5.40798254 25.477293,5.18015328 25.1022675,5.05582439 L25.1022675,4.10060749 C25.1022675,3.64751235 24.7349349,3.28029372 24.2820195,3.28029372 C23.8291041,3.28029372 23.4617714,3.64751235 23.4617714,4.10060749 L23.4617714,4.10060749 Z" id="Path"></path>
                </g>
            </g>
        </g>
    </g>
</svg>