<?xml version="1.0" encoding="UTF-8"?>
<svg width="24px" height="24px" viewBox="0 0 24 24" version="1.1" xmlns="http://www.w3.org/2000/svg" xmlns:xlink="http://www.w3.org/1999/xlink">
    <title>bulletpoint-tick-icon</title>
    <g id="Page-1" stroke="none" stroke-width="1" fill="none" fill-rule="evenodd">
        <g id="Homepage-Dev-Ready" transform="translate(-100.000000, -3187.000000)" fill-rule="nonzero">
            <g id="For-Video-Makers" transform="translate(0.000000, 2705.000000)">
                <g id="bulletpoint-tick-icon" transform="translate(100.000000, 482.000000)">
                    <path d="M12,24 C18.6164551,24 24,18.6169434 24,12 C24,10.8579101 23.8405762,9.73242188 23.5249024,8.654541 C23.3693848,8.12451175 22.815918,7.82006837 22.2844238,7.97558594 C21.7539062,8.13061525 21.4504394,8.68603513 21.6054688,9.21606444 C21.8669434,10.1115723 22,11.048584 22,12 C22,17.513916 17.513916,22 12,22 C6.486084,22 2,17.513916 2,12 C2,6.486084 6.486084,2 12,2 C14.0039062,2 15.9318847,2.5859375 17.5754394,3.69409181 C18.032959,4.00292969 18.6550293,3.88159181 18.9633789,3.42407225 C19.2719726,2.96606444 19.1516113,2.34448244 18.6936035,2.03588869 C16.7185059,0.704101562 14.4040528,0 12,0 C5.38354494,0 0,5.38305663 0,12 C0,18.6169434 5.38354494,24 12,24 Z" id="Path" fill="#011437"></path>
                    <path d="M22.2929688,2.29296875 L12,12.5854492 L8.70703125,9.29296875 C8.31640625,8.90258788 7.68359375,8.90258788 7.29296875,9.29296875 C6.90258787,9.68359375 6.90258787,10.3164062 7.29296875,10.7070312 L11.2929687,14.7070312 C11.4885254,14.9025879 11.7438965,15 12,15 C12.2561035,15 12.5114746,14.9025879 12.7070312,14.7070312 L23.7070313,3.70703125 C24.0974121,3.31640625 24.0974121,2.68359375 23.7070313,2.29296875 C23.3164063,1.90258788 22.6835938,1.90258788 22.2929688,2.29296875 Z" id="Path" fill="#0F56F6"></path>
                </g>
            </g>
        </g>
    </g>
</svg>