<?xml version="1.0" encoding="UTF-8"?>
<svg width="16px" height="16px" viewBox="0 0 16 16" version="1.1" xmlns="http://www.w3.org/2000/svg" xmlns:xlink="http://www.w3.org/1999/xlink">
    <title>calendar-date-icon</title>
    <g id="Desktop" stroke="none" stroke-width="1" fill="none" fill-rule="evenodd">
        <g id="Gallery-Page" transform="translate(-316.000000, -218.000000)" fill="#011437">
            <g id="gallery-search-wrapper" transform="translate(100.000000, 186.000000)">
                <g id="gallery-search-field" transform="translate(196.000000, 10.000000)">
                    <g id="calendar-date-icon" transform="translate(20.000000, 22.000000)">
                        <path d="M12.6666667,1.33333333 L12,1.33333333 L12,0.666666667 C12,0.298476833 11.7015232,0 11.3333333,0 C10.9651435,0 10.6666667,0.298476833 10.6666667,0.666666667 L10.6666667,1.33333333 L5.33333333,1.33333333 L5.33333333,0.666666667 C5.33333333,0.298476833 5.0348565,0 4.66666667,0 C4.29847683,0 4,0.298476833 4,0.666666667 L4,1.33333333 L3.33333333,1.33333333 C1.4932979,1.33553741 0.00220407756,2.82663123 0,4.66666667 L0,12.6666667 C0.00220407756,14.5067021 1.4932979,15.9977959 3.33333333,16 L12.6666667,16 C14.5067021,15.9977959 15.9977959,14.5067021 16,12.6666667 L16,4.66666667 C15.9977959,2.82663123 14.5067021,1.33553741 12.6666667,1.33333333 Z M1.33333333,4.66666667 C1.33333333,3.56209717 2.22876383,2.66666667 3.33333333,2.66666667 L12.6666667,2.66666667 C13.7712362,2.66666667 14.6666667,3.56209717 14.6666667,4.66666667 L14.6666667,5.33333333 L1.33333333,5.33333333 L1.33333333,4.66666667 Z M12.6666667,14.6666667 L3.33333333,14.6666667 C2.22876383,14.6666667 1.33333333,13.7712362 1.33333333,12.6666667 L1.33333333,6.66666667 L14.6666667,6.66666667 L14.6666667,12.6666667 C14.6666667,13.7712362 13.7712362,14.6666667 12.6666667,14.6666667 Z" id="Shape"></path>
                        <circle id="Oval" cx="8" cy="10" r="1"></circle>
                        <circle id="Oval" cx="4.66666667" cy="10" r="1"></circle>
                        <circle id="Oval" cx="11.3333333" cy="10" r="1"></circle>
                    </g>
                </g>
            </g>
        </g>
    </g>
</svg>