<?xml version="1.0" encoding="UTF-8"?>
<svg width="16px" height="16px" viewBox="0 0 16 16" version="1.1" xmlns="http://www.w3.org/2000/svg" xmlns:xlink="http://www.w3.org/1999/xlink">
    <title>card-video-icon</title>
    <g id="Page-1" stroke="none" stroke-width="1" fill="none" fill-rule="evenodd">
        <g id="Homepage-Dev-Ready" transform="translate(-761.000000, -4095.000000)" fill="#011437">
            <g id="spot-card-hover" transform="translate(731.000000, 3843.000000)">
                <g id="card-info-wrapper" transform="translate(30.000000, 249.000000)">
                    <g id="card-video-icon" transform="translate(0.000000, 3.000000)">
                        <path d="M12.6666667,0 L3.33333333,0 C1.4932979,0.00220407756 0.00220407756,1.4932979 0,3.33333333 L0,12.6666667 C0.00220407756,14.5067021 1.4932979,15.9977959 3.33333333,16 L12.6666667,16 C14.5067021,15.9977959 15.9977959,14.5067021 16,12.6666667 L16,3.33333333 C15.9977959,1.4932979 14.5067021,0.00220407756 12.6666667,0 Z M13.3333333,7.33333333 L14.6666667,7.33333333 L14.6666667,8.66666667 L13.3333333,8.66666667 L13.3333333,7.33333333 Z M13.3333333,6 L13.3333333,4.66666667 L14.6666667,4.66666667 L14.6666667,6 L13.3333333,6 Z M12,7.33333333 L4,7.33333333 L4,1.33333333 L12,1.33333333 L12,7.33333333 Z M2.66666667,8.66666667 L1.33333333,8.66666667 L1.33333333,7.33333333 L2.66666667,7.33333333 L2.66666667,8.66666667 Z M2.66666667,6 L1.33333333,6 L1.33333333,4.66666667 L2.66666667,4.66666667 L2.66666667,6 Z M1.33333333,10 L2.66666667,10 L2.66666667,11.3333333 L1.33333333,11.3333333 L1.33333333,10 Z M4,8.66666667 L12,8.66666667 L12,14.6666667 L4,14.6666667 L4,8.66666667 Z M13.3333333,10 L14.6666667,10 L14.6666667,11.3333333 L13.3333333,11.3333333 L13.3333333,10 Z M14.6666667,3.33333333 L13.3333333,3.33333333 L13.3333333,1.456 C14.1295672,1.73750304 14.6631657,2.48880972 14.6666667,3.33333333 Z M2.66666667,1.456 L2.66666667,3.33333333 L1.33333333,3.33333333 C1.33683426,2.48880972 1.87043276,1.73750304 2.66666667,1.456 Z M1.33333333,12.6666667 L2.66666667,12.6666667 L2.66666667,14.544 C1.87043276,14.262497 1.33683426,13.5111903 1.33333333,12.6666667 Z M13.3333333,14.544 L13.3333333,12.6666667 L14.6666667,12.6666667 C14.6631657,13.5111903 14.1295672,14.262497 13.3333333,14.544 Z" id="Shape"></path>
                    </g>
                </g>
            </g>
        </g>
    </g>
</svg>