<?xml version="1.0" encoding="UTF-8"?>
<svg width="16px" height="16px" viewBox="0 0 16 16" version="1.1" xmlns="http://www.w3.org/2000/svg" xmlns:xlink="http://www.w3.org/1999/xlink">
    <title>card-photo-icon</title>
    <g id="Page-1" stroke="none" stroke-width="1" fill="none" fill-rule="evenodd">
        <g id="Homepage-Dev-Ready" transform="translate(-1183.000000, -4105.000000)" fill="#011437">
            <g id="spot-card" transform="translate(1048.000000, 3853.000000)">
                <g id="card-info-wrapper" transform="translate(135.000000, 249.000000)">
                    <g id="card-photo-icon" transform="translate(0.000000, 3.000000)">
                        <path d="M12.6666667,0 L3.33333333,0 C1.4932979,0.00220407756 0.00220407756,1.4932979 0,3.33333333 L0,12.6666667 C0.00220407756,14.5067021 1.4932979,15.9977959 3.33333333,16 L12.6666667,16 C14.5067021,15.9977959 15.9977959,14.5067021 16,12.6666667 L16,3.33333333 C15.9977959,1.4932979 14.5067021,0.00220407756 12.6666667,0 Z M3.33333333,1.33333333 L12.6666667,1.33333333 C13.7712362,1.33333333 14.6666667,2.22876383 14.6666667,3.33333333 L14.6666667,12.6666667 C14.6655169,12.9636579 14.597141,13.2565346 14.4666667,13.5233333 L8.358,7.41466667 C7.73285349,6.7893553 6.88487392,6.43804517 6.00066667,6.43804517 C5.11645941,6.43804517 4.26847984,6.7893553 3.64333333,7.41466667 L1.33333333,9.724 L1.33333333,3.33333333 C1.33333333,2.22876383 2.22876383,1.33333333 3.33333333,1.33333333 Z M3.33333333,14.6666667 C2.22876383,14.6666667 1.33333333,13.7712362 1.33333333,12.6666667 L1.33333333,11.6093333 L4.58533333,8.35733333 C4.96044287,7.98198332 5.46934493,7.77109365 6,7.77109365 C6.53065507,7.77109365 7.03955713,7.98198332 7.41466667,8.35733333 L13.5233333,14.4666667 C13.2565346,14.597141 12.9636579,14.6655169 12.6666667,14.6666667 L3.33333333,14.6666667 Z" id="Shape"></path>
                        <path d="M10.6666667,7 C11.9553311,7 13,5.95533108 13,4.66666667 C13,3.37800225 11.9553311,2.33333333 10.6666667,2.33333333 C9.37800225,2.33333333 8.33333333,3.37800225 8.33333333,4.66666667 C8.33333333,5.95533108 9.37800225,7 10.6666667,7 Z M10.6666667,3.66666667 C11.2189514,3.66666667 11.6666667,4.11438192 11.6666667,4.66666667 C11.6666667,5.21895142 11.2189514,5.66666667 10.6666667,5.66666667 C10.1143819,5.66666667 9.66666667,5.21895142 9.66666667,4.66666667 C9.66666667,4.11438192 10.1143819,3.66666667 10.6666667,3.66666667 L10.6666667,3.66666667 Z" id="Shape"></path>
                    </g>
                </g>
            </g>
        </g>
    </g>
</svg>