<?xml version="1.0" encoding="UTF-8"?>
<svg width="16px" height="12px" viewBox="0 0 16 12" version="1.1" xmlns="http://www.w3.org/2000/svg" xmlns:xlink="http://www.w3.org/1999/xlink">
    <title>content-view-type-icon</title>
    <g id="Desktop" stroke="none" stroke-width="1" fill="none" fill-rule="evenodd">
        <g id="Gallery-Page" transform="translate(-130.000000, -220.000000)" fill="#011437">
            <g id="gallery-search-wrapper" transform="translate(100.000000, 186.000000)">
                <g id="gallery-search-field" transform="translate(10.000000, 10.000000)">
                    <g id="content-view-type-icon" transform="translate(20.000000, 24.000000)">
                        <path d="M15.5112172,4.34285714 C14.4776002,2.72102729 12.1264712,0 8,0 C3.87352878,0 1.52239983,2.72102729 0.488782763,4.34285714 C-0.162927588,5.35840593 -0.162927588,6.64159407 0.488782763,7.65714286 C1.52239983,9.27897271 3.87352878,12 8,12 C12.1264712,12 14.4776002,9.27897271 15.5112172,7.65714286 C16.1629276,6.64159407 16.1629276,5.35840593 15.5112172,4.34285714 Z M14.3749715,6.98491172 C13.4873004,8.37560193 11.4780448,10.7158909 8,10.7158909 C4.52195522,10.7158909 2.51269961,8.37560193 1.62502847,6.98491172 C1.23783911,6.38128598 1.23783911,5.61871402 1.62502847,5.01508828 C2.51269961,3.62439807 4.52195522,1.28410915 8,1.28410915 C11.4780448,1.28410915 13.4873004,3.62182986 14.3749715,5.01508828 C14.7621609,5.61871402 14.7621609,6.38128598 14.3749715,6.98491172 Z" id="Shape"></path>
                        <path d="M8,2.78972713 C6.15973262,2.78972713 4.66790115,4.22701525 4.66790115,6 C4.66790115,7.77298475 6.15973262,9.21027287 8,9.21027287 C9.84026738,9.21027287 11.3320989,7.77298475 11.3320989,6 C11.3298956,4.22789525 9.83935399,2.79184983 8,2.78972713 Z M8,7.92616372 C6.89583957,7.92616372 6.00074069,7.06379085 6.00074069,6 C6.00074069,4.93620915 6.89583957,4.07383628 8,4.07383628 C9.10416043,4.07383628 9.99925931,4.93620915 9.99925931,6 C9.99925931,6.51085038 9.78862367,7.00077766 9.41368982,7.36200343 C9.03875597,7.7232292 8.53023654,7.92616372 8,7.92616372 Z" id="Shape"></path>
                    </g>
                </g>
            </g>
        </g>
    </g>
</svg>