<?xml version="1.0" encoding="UTF-8"?>
<svg width="17px" height="16px" viewBox="0 0 17 16" version="1.1" xmlns="http://www.w3.org/2000/svg" xmlns:xlink="http://www.w3.org/1999/xlink">
    <title>footer-email-icon</title>
    <g id="Page-1" stroke="none" stroke-width="1" fill="none" fill-rule="evenodd">
        <g id="Homepage-Dev-Ready" transform="translate(-1171.000000, -5469.000000)" fill="#FFFFFF" fill-rule="nonzero">
            <g id="Footer" transform="translate(0.000000, 5337.000000)">
                <g id="footer-contact-email" transform="translate(1171.000000, 129.000000)">
                    <g id="footer-email-icon" transform="translate(0.000000, 3.000000)">
                        <path d="M13.4583333,0 L3.54166667,0 C1.58662902,0.00228008023 0.0023418324,1.54479093 0,3.44827586 L0,12.5517241 C0.0023418324,14.4552091 1.58662902,15.9977199 3.54166667,16 L13.4583333,16 C15.413371,15.9977199 16.9976582,14.4552091 17,12.5517241 L17,3.44827586 C16.9976582,1.54479093 15.413371,0.00228008023 13.4583333,0 Z M3.54166667,1.37931034 L13.4583333,1.37931034 C14.3260574,1.38097213 15.1055754,1.8961386 15.4275,2.68068966 L10.0030833,7.96275862 C9.17197952,8.76870655 7.82802048,8.76870655 6.99691667,7.96275862 L1.5725,2.68068966 C1.89442457,1.8961386 2.6739426,1.38097213 3.54166667,1.37931034 Z M13.4583333,14.6206897 L3.54166667,14.6206897 C2.36806157,14.6206897 1.41666667,13.6943822 1.41666667,12.5517241 L1.41666667,4.48275862 L5.99533333,8.93793103 C7.37964688,10.2823341 9.62035312,10.2823341 11.0046667,8.93793103 L15.5833333,4.48275862 L15.5833333,12.5517241 C15.5833333,13.6943822 14.6319384,14.6206897 13.4583333,14.6206897 Z" id="Shape"></path>
                    </g>
                </g>
            </g>
        </g>
    </g>
</svg>