<?xml version="1.0" encoding="UTF-8"?>
<svg width="12px" height="14px" viewBox="0 0 12 14" version="1.1" xmlns="http://www.w3.org/2000/svg" xmlns:xlink="http://www.w3.org/1999/xlink">
    <title>sort-icon</title>
    <g id="Desktop" stroke="none" stroke-width="1" fill="none" fill-rule="evenodd">
        <g id="Gallery-Page" transform="translate(-1070.000000, -219.000000)" fill="#011437">
            <g id="gallery-sort-wrapper" transform="translate(1070.000000, 208.000000)">
                <g id="sort-icon" transform="translate(0.000000, 11.000000)">
                    <path d="M5.80466395,2.52866667 L3.47129821,0.195333333 C3.2112946,-0.065 2.78862206,-0.065 2.52861845,0.195333333 L0.195252712,2.52866667 C-0.0650842373,2.789 -0.0650842373,3.211 0.195252712,3.47133333 C0.455256323,3.73166667 0.87792886,3.73166667 1.13793247,3.47133333 L2.33328241,2.276 L2.33328241,13.3333333 C2.33328241,13.7013333 2.63195322,14 2.99995833,14 C3.36796344,14 3.66663426,13.7013333 3.66663426,13.3333333 L3.66663426,2.276 L4.86198419,3.47133333 C4.991986,3.60166667 5.16265504,3.66666667 5.33332407,3.66666667 C5.50399311,3.66666667 5.67466215,3.60166667 5.80466395,3.47133333 C6.0650009,3.211 6.0650009,2.789 5.80466395,2.52866667 Z" id="Path"></path>
                    <path d="M11.8047473,10.5286667 C11.5444103,10.2683333 11.1224045,10.2683333 10.8620675,10.5286667 L9.66671759,11.724 L9.66671759,0.666666667 C9.66671759,0.298666667 9.36804678,0 9.00004167,0 C8.63203656,0 8.33336574,0.298666667 8.33336574,0.666666667 L8.33336574,11.724 L7.13801581,10.5286667 C6.87767886,10.2683333 6.45533966,10.2683333 6.19533605,10.5286667 C5.9349991,10.789 5.9349991,11.211 6.19533605,11.4713333 L8.52870179,13.8046667 C8.65903693,13.935 8.82937263,14 9.00004167,14 C9.1707107,14 9.3410464,13.935 9.47138155,13.8046667 L11.8047473,11.4713333 C12.0650842,11.211 12.0650842,10.789 11.8047473,10.5286667 Z" id="Path"></path>
                </g>
            </g>
        </g>
    </g>
</svg>