<?xml version="1.0" encoding="UTF-8"?>
<svg width="13px" height="16px" viewBox="0 0 13 16" version="1.1" xmlns="http://www.w3.org/2000/svg" xmlns:xlink="http://www.w3.org/1999/xlink">
    <title>spot-location-icon</title>
    <g id="Desktop" stroke="none" stroke-width="1" fill="none" fill-rule="evenodd">
        <g id="Gallery-Page" transform="translate(-693.000000, -218.000000)" fill="#011437">
            <g id="gallery-search-wrapper" transform="translate(100.000000, 186.000000)">
                <g id="gallery-search-field" transform="translate(572.000000, 10.000000)">
                    <g id="spot-location-icon" transform="translate(21.000000, 22.000000)">
                        <path d="M6.5,4.00097701 C5.07191412,4.00097701 3.91422178,5.19477802 3.91422178,6.6674062 C3.91422178,8.14003438 5.07191412,9.3338354 6.5,9.3338354 C7.92808588,9.3338354 9.08577822,8.14003438 9.08577822,6.6674062 C9.08577822,5.96022521 8.8133488,5.28200851 8.32842131,4.78195604 C7.84349383,4.28190356 7.18579102,4.00097701 6.5,4.00097701 Z M6.5,8.0006208 C5.78595706,8.0006208 5.20711089,7.40372029 5.20711089,6.6674062 C5.20711089,5.93109211 5.78595706,5.3341916 6.5,5.3341916 C7.21404294,5.3341916 7.79288911,5.93109211 7.79288911,6.6674062 C7.79288911,7.40372029 7.21404294,8.0006208 6.5,8.0006208 Z" id="Shape"></path>
                        <path d="M6.5,15.9999546 C5.39545868,16.0057386 4.35670144,15.4591035 3.71317752,14.5333723 C1.24957732,11.0290178 0,8.39458571 0,6.70273639 C0,3.0009173 2.91014913,0 6.5,0 C10.0898509,0 13,3.0009173 13,6.70273639 C13,8.39458571 11.7504227,11.0290178 9.28682248,14.5333723 C8.64329856,15.4591035 7.60454132,16.0057386 6.5,15.9999546 Z M6.5,1.45520373 C3.69014207,1.45850991 1.41310175,3.8065716 1.40989557,6.7040696 C1.40989557,8.04395027 2.63361512,10.5217296 4.85479861,13.6807816 C5.23728987,14.2240524 5.84895589,14.5455704 6.5,14.5455704 C7.15104411,14.5455704 7.76271013,14.2240524 8.14520139,13.6807816 C10.3663849,10.5217296 11.5901044,8.04395027 11.5901044,6.7040696 C11.5868982,3.8065716 9.30985793,1.45850991 6.5,1.45520373 Z" id="Shape"></path>
                    </g>
                </g>
            </g>
        </g>
    </g>
</svg>