<?xml version="1.0" encoding="UTF-8"?>
<svg width="16px" height="16px" viewBox="0 0 16 16" version="1.1" xmlns="http://www.w3.org/2000/svg" xmlns:xlink="http://www.w3.org/1999/xlink">
    <title>time-icon</title>
    <g id="Desktop" stroke="none" stroke-width="1" fill="none" fill-rule="evenodd">
        <g id="Gallery-Page" transform="translate(-447.000000, -218.000000)" fill="#011437">
            <g id="gallery-search-wrapper" transform="translate(100.000000, 186.000000)">
                <g id="gallery-search-field" transform="translate(327.000000, 10.000000)">
                    <g id="Group-13" transform="translate(20.000000, 19.000000)">
                        <g id="time-icon" transform="translate(0.000000, 3.000000)">
                            <path d="M8,0 C3.581722,0 0,3.581722 0,8 C0,12.418278 3.581722,16 8,16 C12.418278,16 16,12.418278 16,8 C15.9952234,3.58370203 12.416298,0.00477656508 8,0 Z M8,14.6666667 C4.31810167,14.6666667 1.33333333,11.6818983 1.33333333,8 C1.33333333,4.31810167 4.31810167,1.33333333 8,1.33333333 C11.6818983,1.33333333 14.6666667,4.31810167 14.6666667,8 C14.6626251,11.680223 11.680223,14.6626251 8,14.6666667 L8,14.6666667 Z" id="Shape"></path>
                            <path d="M8,4 C7.63181017,4 7.33333333,4.29847683 7.33333333,4.66666667 L7.33333333,7.55 L5.086,8.958 C4.77303865,9.15350881 4.67782455,9.56570531 4.87333335,9.87866666 C5.06884215,10.191628 5.48103864,10.2868421 5.794,10.0913333 L8.354,8.49133333 C8.55069044,8.3680967 8.6691254,8.1514289 8.66670422,7.91933333 L8.66670422,4.66666667 C8.66670422,4.29847683 8.36818983,4 8,4 Z" id="Path"></path>
                        </g>
                    </g>
                </g>
            </g>
        </g>
    </g>
</svg>